<?xml version="1.0" encoding="utf-8"?>
<!-- Generator: Adobe Illustrator 24.1.1, SVG Export Plug-In . SVG Version: 6.00 Build 0)  -->
<svg version="1.1" id="rehosval"  fill="currentColor" xmlns="http://www.w3.org/2000/svg" xmlns:xlink="http://www.w3.org/1999/xlink" x="0px" y="0px"
	 xml:space="preserve">
<g>
	<path d="M316.2,738.9V518.8c0-11.1-7.3-17.6-15.6-24c-9.2-7.4-18.3-8.3-30.2-9.2l-13.7-0.9V303.3h21.1
		c25.7,0,47.7-22.2,47.7-49.9c0-25.9-22-48.1-47.7-48.1c-30.2,0-53.2,41.6-46.7,63.8v468.8H0V251.5C0,108.2,113.7,0,268.6,0
		C404.2,0,536.2,80.4,539,223.8c0.9,57.3-27.5,111-58.7,135.9l-10.1,8.3l13.7,7.4c19.2,9.2,28.4,20.3,40.3,37.9
		c19.2,27.7,22,52.7,22,86.9v238.6H316.2z"/>
	<path d="M943.2,737.9c-184.2,0-327.2-163.7-331.8-350.5c-4.6-203.4,151.2-368,369.4-368h110.9v199.7H985.3
		c-14.7,0-49.5,8.3-74.2,25c-19.2,12.9-29.3,25.9-40.3,46.2h221.8v175.7H868.9c10.1,23.1,22,36.1,43.1,50.9
		c29.3,20.3,68.7,22.2,91.7,22.2h90.7v198.8H943.2z"/>
	<path d="M1515.1,737.9V460.5h-96.2v277.4h-230.1V19.4h225.5V258h98.1V19.4h231v718.5H1515.1z"/>
	<path d="M2197.8,751.8c-200.7-0.9-367.5-162.8-369.4-365.3c-1.8-203.4,163.1-370.8,364.8-374.5
		c204.4-3.7,379.5,167.4,377.6,374.5C2569,589.1,2399.5,751.8,2197.8,751.8z M2188.6,239.5c-76.1,3.7-132.9,70.3-131.1,147
		c0.9,75.8,62.3,139.6,138.4,139.6c78.8,0,142.1-69.4,139.3-148C2333.5,298.7,2266.5,234.9,2188.6,239.5z"/>
	<path d="M2887.4,737.9h-264V539.1h183.3c16.5,0,37.6-15.7,39.4-29.6c3.7-28.7-23.8-39.8-46.7-56.4l-57.7-45.3
		c-55.9-44.4-123.7-106.3-121-196c3.7-118.4,99-192.3,233.7-192.3h211.7v199.7h-160.4c-10.1,0-22,8.3-24.7,17.6
		c-2.8,10.2,0.9,18.5,8.2,24l89.8,72.1c73.3,58.3,125.6,114.7,123.7,209.9C3100.1,644.5,3024,737.9,2887.4,737.9z"/>
	<path d="M3595,629.7c-16.5,77.7-88.9,122.1-167.7,119.3c-93.5-1.9-151.2-49-170.5-130.4L3118.4,19.4h230.1l72.4,419.8
		l78.8-419.8h229.1L3595,629.7z"/>
	<path d="M4078.8,738.9V516.9h-69.7V329.2h69.7l-0.9-54.6c-0.9-27.7-18.3-51.8-45.8-53.6c-29.3-0.9-46.7,32.4-46.7,62.9
		v455h-230.1V266.3c0-145.2,107.2-255.2,270.4-258c150.3-2.8,282.3,98,282.3,268.2v462.4H4078.8z"/>
	<path d="M4662.6,738.9c-87.1,0-154.9-12.9-209-80.5c-35.7-44.4-52.2-95.2-52.2-138.7V19.4h239.2v446.6
		c0,16.6-2.7,30.5,5.5,42.5c15.6,26.8,66.9,30.5,77.9,30.5h67.8v199.7H4662.6z"/>
</g>
</svg>
